<svg id="Layer_1" data-name="Layer 1" xmlns="http://www.w3.org/2000/svg" viewBox="0 0 512 512"><defs><style>.cls-1{opacity:0.75;}.cls-2{fill:#e4eef2;}.cls-3{fill:#facd40;}.cls-4{fill:#fefefe;}.cls-5{fill:#262626;}.cls-6{fill:#c63255;}.cls-7{fill:#e94265;}.cls-12,.cls-18,.cls-8{fill:none;}.cls-8{stroke:#262626;}.cls-12,.cls-8{stroke-linecap:round;stroke-linejoin:round;stroke-width:0.75px;}.cls-9{fill:#57b9a2;}.cls-10{fill:#4e2669;}.cls-11{fill:#391b51;}.cls-12{stroke:#fff;}.cls-13{fill:#fff;}.cls-14{fill:#1daa6b;}.cls-15{fill:#fed040;}.cls-16{fill:#ee4266;}.cls-17{fill:#ffd141;}.cls-18{stroke:#191919;stroke-miterlimit:10;}.cls-19{fill:#1b1c1c;}</style></defs><title>Connecting People Vector</title><g class="cls-1"><path class="cls-2" d="M462.25,186.8s15.61-2.28,22.44,8.13,16.9,14.63,0,20.16S459.65,231,458,240.77s-27,46.5-21.13,60.48,3.9,22.76-2.6,23.41-21.14,7.48-22.76-5.85,7.15-11.06-5.86-16.58-10.08-16.59-21.78-16.91-15.93-5.85-9.76,7.48S386.49,316.53,378,313s.65-14.64-15-11.06-5.2,1-13.33,7.8-9.43,10.41-13.33-2.92-5.86-17.89-13.66-16.58-13.66-6.83-14-2.61,10.08,8.13,7.15,14.64-8.45,8.45-14.3,3.9S284.72,293.77,286,284.67s9.22-11.06-.11-12-14.52-.65-9.32-4.23,8.78-12.91,2.27-9.55-7.47,16.7-14.63,12.15-7.15-11.38-18.86-3.58-15,11.06-17.23,4.88-1.3-10.4,4.55-11.38-5.85-6.5,10.41-14.31,9.75-11.05,20.81-15.93,13.65-17.88,7.15-14-16.26,19.84-21.78,11.71-13-2.6-.33-18.54,22.76-25.68,31.22-19.83,5.85,21.46,17.55,19.51,8.78-19.19,22.11-17.56,28.62,9.1,29.92,2.6.32-13.33,9.43-15.93,15.93-13.66,20.16-19.51,18.86-2.93,16.58,6.5-7.15,17.56-1.63,17.89,2.6-7.16,16.91-2.28,15.28,2.28,16.26-2,.65-9.43,6.5-6.5S453.47,188.75,462.25,186.8Z"/><path class="cls-2" d="M437.54,165.17c0,2.25-3.06,4.07-6.83,4.07s-6.83-1.82-6.83-4.07,3.06-4.06,6.83-4.06S437.54,162.93,437.54,165.17Z"/><path class="cls-2" d="M405.67,350.35a18.7,18.7,0,0,0,10.08-7.16c4.23-5.85,6.83-2.92,11.71,0s7.15-6.95,10.08,1.89,5.2,11.77,7.8,17.95,4.55,12.35-4.55,15.93-14.31-4.23-24.39-5.2-10.08,1-19.18,1.95-22.11-8.45-11.38-13.33A110.63,110.63,0,0,0,405.67,350.35Z"/><path class="cls-2" d="M257.08,277.19s-10.08.32-13.33-1.3-22.11,5.85-22.76,13.33-13.66,9.75-2.93,26.34,21.14,11.05,25.69,20.16,9.75,18.86,18.21,17.55-.65-9.75,16.9-15.28,28.29-7.15,29.27-14.3,8.13-2-5.85-11.71-18.86-21.46-23.42-26.34S257.08,277.19,257.08,277.19Z"/><path class="cls-2" d="M213.83,179c-1.43-1.79-9.75-10.4,0-29.59s19.84-22.43,7.81-25.68-13-10.41-17.89-16.26-12-1.95-24.71,6.83-23.73,3.9-25.36,15.61-8.13,12-10.08,21.13-13.33,5.85,0,11.71,13.66,15.6,7.48,17.88-16.26-.65-18.86-4.88-13.65-5.85-13.33-.32,2-2.93-2.28,10.08S111.41,206,94.5,200.13s-8.77-15-27.63-8.46S46.71,194.28,32.4,191s-15.93,7.48-13.33,20.81-7.8,23.41,9.75,18.86,30.24-1.62,31.54,7.16-1.3,43.89,15.94,46.82,22.76-3.58,26.66,8.13,8.78,14,14,13.65,8.78,6.51,11.71,6.18,11.7-2.6,3.25-6.83-18.86-6.5-14.31-9.75,2.28-1.3,8.78,1.3,10.08,4.55,4.55-2.6-11.79-13.33-8.33-16.26.2-3.25,4.1-6.18,5.86,11.06,13-7.48-10.08-40.32,11.06-30.24,18.85,12.36,33.81,10.73,8.78-9.75,22.44-15.6,26-1.95,11.05-12-26.34-18.86-16.91-21.79,9.11,2.6,12.68-4.55S215.79,181.44,213.83,179Z"/><path class="cls-2" d="M166,322.06s-11.71-12-17.56-12.68-21.14,1-18.53,14-1,15.28,2.27,21.14,8.13,3.25,6.83,13-2,13.9-2,22.39-6.83,11.75.32,22.16,7.16,2.92,14.31-1.3,1.3-1.3,12.36-7.48-7.81-22.44,21.13-21.79,39,12.36,45.85.65,18.53-14,4.87-21.46-18.85-7.8-25.36-7.8-6.17-2.28-14.63-5.53-15.61-9-21.13-10.36S166.69,326.29,166,322.06Z"/></g><path class="cls-3" d="M237.86,115.17V175a26.51,26.51,0,0,1-26.5,26.51h-87c-11.78,12.46-24.5,14.76-27.74,15.16a.23.23,0,0,1-.17-.4c4.63-4,8.22-14.76,8.22-14.76H97A26.51,26.51,0,0,1,70.52,175V115.17A26.5,26.5,0,0,1,97,88.68H211.36A26.5,26.5,0,0,1,237.86,115.17Z"/><path class="cls-4" d="M193.39,201.5h8.79c14.1-2.08,23.21-12.43,25.59-18.84,3.12-8.37,6.49-19.77,6.49-19.77a10.1,10.1,0,0,0,3.6-1.59,35.79,35.79,0,0,0,6-5.46c2.22-2.38,3.48-4,2.27-5.34s-2.74-.12-2.9,0a15.74,15.74,0,0,1,2.17-2.09c1.17-.89,1.63-2.26,1-3.11a2.47,2.47,0,0,0-1.5-1s1.24-.7.31-2.35-3-.67-3-.67c1.61-1.32,1.38-2.49-.12-3.46-.61-.39-2.38.45-4.25,1.57-2.62,1.56-5.43,3.69-5.61,3.82,1.88-4.23-1.87-4-1.87-4-7.17,1.55-7,18.55-7,18.55s-13.3,16.31-21,18.17c-3.61.87-9.14-.44-14-2.08a92,92,0,0,1-10.06-4.1l-.07.14-9.62,18.72S165.94,194.76,185,200c.9.24,1.85.49,2.85.73a38,38,0,0,0,4,.77Z"/><path class="cls-4" d="M183.21,122.69s3.65,20.9-10.78,28.6c0,0-10.41-15.6-8.94-25S179,108.11,183.21,122.69Z"/><path class="cls-4" d="M157.88,143.33l-6.35,11.6,17.72,6s3.76-7.38,3.61-7.63S157.88,143.33,157.88,143.33Z"/><path class="cls-5" d="M183.21,122.69s5.11-5.14,3.11-10.91S177.6,108,177.6,108s1.92-7.37-5.3-8.56-10.93,5-10.93,5-5.23-7.37-12.74-.77-2.87,13-2.87,13-7.49-2.47-8.51,5.49,7,11.88,10.29,11.17c0,0-2.42,5.93,1.61,7.59a5.58,5.58,0,0,0,6.48-1.37s3.58,15.11,19,14.94S177,148,174,145s-6.47-7.73-7.68-13.47-2.82-5.21-2.82-5.21S176.32,106.55,183.21,122.69Z"/><path class="cls-4" d="M163,136.36c-1.65,1.49-4.28-.39-5.77-2a4,4,0,0,1,6-5.4C164.67,130.57,164.63,134.87,163,136.36Z"/><path class="cls-6" d="M193.39,201.5c-2.77-5.38-4.5-22.31-5-27.58-.1-1-.14-1.58-.14-1.58l-10-4.17c0,.6,0,1.2,0,1.79A80.55,80.55,0,0,0,185,200l.68,1.5h7.67Z"/><path class="cls-7" d="M191,201.5H139.52a120.94,120.94,0,0,1,4.72-35.26s4.85-13.69,10-13.05c3.76.48,16.52,3.95,25.82,17.43a56,56,0,0,1,8.36,19.84c.92,4.07,1.75,7.68,2.49,10.89A.83.83,0,0,1,191,201.5Z"/><path class="cls-8" d="M169.84,171.45a53.17,53.17,0,0,1,13.25,30.05"/><path class="cls-8" d="M156.17,168.17s-8.95,15.67-4.64,33.33"/><path class="cls-8" d="M178.26,168.17l10,4.17s1.66,21.59,5.12,29.16"/><path class="cls-8" d="M232.69,146.34s2,4.16.5,7.44"/><path class="cls-8" d="M227.89,161.86a23.64,23.64,0,0,0,4.8,1.77"/><path class="cls-5" d="M174.92,140.12s5.39-.38,5.2.48-2.2,3.39-3.65,2.73S174.92,140.12,174.92,140.12Z"/><path class="cls-8" d="M180.13,128.48s-2.89-3.12-7.27,0"/><path class="cls-5" d="M178.72,131.61a1,1,0,1,1-.53-1.58A1.22,1.22,0,0,1,178.72,131.61Z"/><path class="cls-9" d="M62,280.16V340a26.51,26.51,0,0,0,18.3,25.21h0c.76.25,1.55.46,2.34.64a25.9,25.9,0,0,0,5.74.65h7.81s-3.6,10.76-8.23,14.76a.22.22,0,0,0,.17.4c3.24-.4,16-2.69,27.74-15.16h87A26.49,26.49,0,0,0,229.3,340V280.16a26.5,26.5,0,0,0-26.5-26.5H88.46A26.5,26.5,0,0,0,62,280.16Z"/><path class="cls-5" d="M131.45,281.53s-7-3.1-9.77-9.29-3.54-15.84,5.28-24.5,27.41-3.72,30.44-1.12,4.51,9.53-2.43,12.5Z"/><path class="cls-5" d="M139.86,239.32s4.59-4.21,4.22-8.79-9.41-7.3-15.84-5.69-12,6.43-10,12,8.05,6.93,8.05,6.93S129.33,239,139.86,239.32Z"/><path class="cls-10" d="M68,345.69c2,9.57,8.78,16.49,12.28,19.5h0c.76.25,1.55.46,2.34.64a25.9,25.9,0,0,0,5.74.65h7.81s-3.6,10.76-8.23,14.76a.22.22,0,0,0,.17.4c3.24-.4,16-2.69,27.74-15.16h61.73L183,352.71c31.44-2.23,39.36-19.81,39.11-35.16s-23.39-43.63-23.39-43.63-11.33-1.24-13.62,5.57S187,307.07,187,307.07c-14.52-10.23-38.13-14.19-38.13-14.19s-2,3.21-4.12,3.38-12.62.49-15.92-3.38c0,0-27.15,6.27-39.2,17.49S65.35,332.65,68,345.69Z"/><path class="cls-11" d="M196.72,272.65s-2.41-4.58-4.55-4.3-8.42,3-8.42,4.92a17,17,0,0,0,1.06,4.7S189.14,272,196.72,272.65Z"/><path class="cls-4" d="M192.64,267.14s-4-4.49-4.18-5.79a64.13,64.13,0,0,1-.78-7c0-1.36-2.16-1.7-3,3.37,0,0-.68,2.2.53,2.85,0,0-3.28-1.46-4.86-.28a2.63,2.63,0,0,0-1.17,2.69s-1.4,1.12-1.06,2.39,1.12,1.11,1.12,1.11-1.92,1.42-.81,3.25,4.58,1.11,4.58,1.11-3.18-1.51-2.91-2,1.37-.49,2.2.5a10.35,10.35,0,0,1,1.42,3.15A14.1,14.1,0,0,1,192.64,267.14Z"/><path class="cls-4" d="M155,259.12s5.45,15.72,0,23.4-8.41,4.83-8.41,4.83l.62,3.71-17.09-1.73s2.48-7.18.75-11.39-4.83-8.54-3.59-10.52,3.34-.25,4.21.62,1.73,3.77,3.28.92.37-9.4.37-9.4S147.42,263.7,155,259.12Z"/><path class="cls-11" d="M147.42,288.75s-11,2.14-16.95-3.05l-1.16,6.35a15.91,15.91,0,0,0,11.64,3.3c6.76-.91,7.26-3.55,7.26-3.55Z"/><path class="cls-12" d="M192.64,319.44a69.66,69.66,0,0,1-5.79-13.09"/><path class="cls-12" d="M144.85,297.84s19.47,27,1.64,67.22"/><path class="cls-12" d="M182.51,321.73s5.14,18.62.44,31"/><path class="cls-12" d="M127,295.48s-36,11.68-47.64,29.18S74.53,354.69,83,363"/><path class="cls-12" d="M129.31,296.43S94.83,309.8,85.43,322.51,74.2,345,86.25,363"/><path class="cls-12" d="M95.74,337.22s-1.23,6.91,4.3,10a27.18,27.18,0,0,1,13.44,17.79"/><path class="cls-12" d="M106.51,336.33c-.25.5-6.76,3.31-9.32,8.28"/><path class="cls-8" d="M142.65,266.38a3.18,3.18,0,0,0-3.56,1.72"/><path class="cls-8" d="M150.69,265.21s2.8-.92,3.77,1.63"/><path class="cls-5" d="M151.86,270.07c0,.6.32,1.09.71,1.09s.71-.49.71-1.09S153,269,152.57,269,151.86,269.47,151.86,270.07Z"/><path class="cls-5" d="M141.18,271.53c0,.56.28,1,.61,1s.61-.45.61-1-.27-1-.61-1S141.18,271,141.18,271.53Z"/><path class="cls-8" d="M148.55,269.61c0,.16,2.51,6.36,2.35,6.36s-3.65.38-3.65.38"/><path class="cls-5" d="M141.17,276.35a8.51,8.51,0,0,0,7.91,4.1c5.65-.25-2.64,4.48-6.2,2.14s-2.55-5.15-2.26-6.24S141.17,276.35,141.17,276.35Z"/><path class="cls-10" d="M454.12,188.22V248a26.51,26.51,0,0,1-12.94,22.78,26.14,26.14,0,0,1-10.27,3.52,25.49,25.49,0,0,1-3.29.21h-7.7s3.59,10.75,8.23,14.76a.23.23,0,0,1-.17.4c-3.24-.4-16-2.7-27.75-15.16h-87A26.5,26.5,0,0,1,286.79,248V188.22a26.49,26.49,0,0,1,26.49-26.49H427.62A26.49,26.49,0,0,1,454.12,188.22Z"/><path class="cls-13" d="M315.93,240.83s-.65-10.21-2.27-12.47-3.4-2.68-4.05-1.3c0,0-4.62-8.1-5.83-9.31s-2.51.72-2.43,1.45a4.77,4.77,0,0,0-2.19.25c-.81.4-.4,1.45-.4,1.45a4.61,4.61,0,0,0-2.68-.24c-1.05.41-.4,2.51-.4,2.51a8.47,8.47,0,0,1-2.19.49c-1.13.08-1.54,2.43-1,3.16S302,247.15,303,248.44s7.86,1.62,10.29,1.71,3.24-1.87,4.21-3.41S315.93,240.83,315.93,240.83Z"/><path class="cls-14" d="M454.12,235.07v13a26.51,26.51,0,0,1-12.94,22.78c2.59-12.5-8.69-22.45-8.69-22.45s-.83,13.7-1.58,26a25.49,25.49,0,0,1-3.29.21h-7.7s3.59,10.75,8.23,14.76a.23.23,0,0,1-.17.4c-3.24-.4-16-2.7-27.75-15.16H383.86c-1.11-.49-1.75-.75-1.75-.75l-6.54-14.26a45.72,45.72,0,0,1-12.54,15H317.56c-9.95-10.71-15-26.3-15.32-26.51-.08-.06.05-.16.32-.3,1.33-.69,6-2.13,6-2.13l3.24,1.79V243l4.07-3.16.31-.24s4.7,7.61,15.07,18,21.71-11.83,24.13-17.66,10.38-21.71,15.18-24.79a38.63,38.63,0,0,0,8.47-7.82,0,0,0,0,1,0,0,25.53,25.53,0,0,1,2.61-2.1l.1-.07c6.74-4.72,14.63-5.77,19-6a30.53,30.53,0,0,1,3.35,0h0c1.75,4.12,7.64,3.49,25.3,12.4A57.19,57.19,0,0,1,454.12,235.07Z"/><path class="cls-5" d="M393,158.53a22.1,22.1,0,0,0-16.07-2.84c-5.42,1-12.2,3.65-15.35,10.22-5.67,11.82-8.75,5.83-11.34,13.93s-14.74,5.34-6.8,12.63,31.91,2.6,35.31,8.1,12.8-3.4,17.82-14.25C400.71,177.27,403.77,165.41,393,158.53Z"/><path class="cls-13" d="M381.3,161.05c-.06-.49-8.1,7-19.44,10,0,0-4.68,24.46,9.73,25.92,0,0,5.82,1,7.6,1l2.13,6.64,11.8,21.23,8.43-29.49s-8.43-9.07-11.34-14.09c0,0,6.31-1.78,5-5.35s-4.21-4.53-5.83-3.4a4.37,4.37,0,0,0-1.79,2.92S382.27,168.82,381.3,161.05Z"/><path class="cls-15" d="M403.21,197.05s3,8.14,6.44,9.6-7.66,6.8-7,9.23,4.25,5.35,6.07,6.08-14.58,11.54-14.58,14.58-8.5-9.11-11.9-10.69,1.09-2.07,3.16-4.5c0,0-7.66-3.4-9.48-5.1S381.11,204,381.11,204l12,21.87,8.43-29.49Z"/><path class="cls-8" d="M376.1,172.63s2.83-1.74,4.09.49"/><path class="cls-8" d="M368.77,173.12c-.16.16-2.47-2.27-4.17.56"/><path class="cls-8" d="M371,175.67c0,.16-1.17,8.14-.89,8s2.56-.73,2.56-.73"/><path class="cls-8" d="M377.23,184a6.78,6.78,0,0,1-4.57,4.05"/><path class="cls-5" d="M367.8,178.14c0,1-.61,1.82-1.36,1.82s-1.36-.82-1.36-1.82.61-1.82,1.36-1.82S367.8,177.13,367.8,178.14Z"/><path class="cls-5" d="M379.5,177.86c0,1-.61,1.82-1.36,1.82s-1.35-.82-1.35-1.82.6-1.83,1.35-1.83S379.5,176.85,379.5,177.86Z"/><path class="cls-16" d="M443.54,351.53v59.82a26.49,26.49,0,0,1-25,26.46c-.5,0-1,.05-1.51.05h-7.7s3.6,10.75,8.23,14.76a.23.23,0,0,1-.17.4c-3.24-.4-16-2.7-27.74-15.16h-87a26.5,26.5,0,0,1-26.43-26.51V351.53A26.49,26.49,0,0,1,302.7,325H417A26.49,26.49,0,0,1,443.54,351.53Z"/><path class="cls-17" d="M417.57,452.62a.23.23,0,0,1-.17.4c-3.24-.4-16-2.7-27.74-15.16h-87l0-.22a47.63,47.63,0,0,1,14.5-28.3c9.94-9.4,24.92-20.2,40.61-19.29,27.4,1.6,50.08,12,57.82,34.7l2.95,13.06c-.5,0-1,.05-1.51.05h-7.7S412.94,448.61,417.57,452.62Z"/><path class="cls-9" d="M382.64,430.34l1,7.52H329c-.72-5.8-1.66-15.91-.68-23.79,1.47-11.74,3.65-16.31,3.65-16.31l5.33-3s-3.77,15.68-3.77,21c0,0,39.76,0,43.5,3.2,0-1.47-1.06-21,2.94-25.31l5.6,1.87S380.37,419.28,382.64,430.34Z"/><path class="cls-4" d="M337.06,353.69s-7.39,26.89,10.76,32.49l-.67,5.21s3.6,4,12.94,3.33,11.34-4.27,11.34-4.27v-9.87S379.71,368.44,380,361s-6.8-19.35-17.08-21.08S338.39,345.49,337.06,353.69Z"/><path class="cls-18" d="M349.28,355.83s2.67-2.67,5.94-1.33"/><path class="cls-18" d="M343.61,355s-3.86-1.68-6.33.85"/><polyline class="cls-18" points="346.35 359.57 345.01 369.97 348.95 369.97"/><path class="cls-18" d="M346.42,375c.26,0,4.2,1.47,8.07-.33"/><path class="cls-5" d="M341.75,361.1c0,.85-.42,1.53-.94,1.53s-.93-.68-.93-1.53.42-1.53.93-1.53S341.75,360.25,341.75,361.1Z"/><ellipse class="cls-5" cx="352.89" cy="361.73" rx="0.93" ry="1.53"/><path class="cls-19" d="M381.8,341.67s-5.7-10.95-24.82-9.43-25.44,16.63-25.89,22.06l16.64-1.69s5.87-7.12,9.25-7.21l-2.58,6.49,8.54,2.41,4.18-6.23s-3.65,17.61,2,16,5,.71,5.16,1.87-8.54,21.26-11.39,22.77c0,0,12.63-7,14.32-10.32,0,0-.09,5.52-1.87,7.56,0,0,9.16-5.51,10.14-19.21A62.14,62.14,0,0,0,381.8,341.67Z"/></svg>